<svg width="50" height="50" viewBox="0 0 50 50" fill="none" xmlns="http://www.w3.org/2000/svg"><circle cx="25.099" cy="16.323" r="14.346" stroke="#1EB6E8" stroke-width="2.63"/><path d="m15.093 26.385-4.93 18.686a.56.56 0 0 0 .781.65l5.163-2.442a.56.56 0 0 1 .701.19l3.11 4.523a.56.56 0 0 0 1.004-.175l4.376-16.68" stroke="#1EB6E8" stroke-width="2.63"/><path d="m35.039 26.385 4.897 18.684a.56.56 0 0 1-.782.648l-5.118-2.436a.56.56 0 0 0-.704.19l-3.082 4.513a.56.56 0 0 1-1.004-.175L24.9 31.137m.166-23.019a.195.195 0 0 1 .364 0l2.011 5.124c.028.07.095.12.17.123l5.52.32c.178.01.25.233.113.346l-4.276 3.482a.195.195 0 0 0-.065.201l1.4 5.318a.195.195 0 0 1-.294.214l-4.656-2.97a.195.195 0 0 0-.21 0l-4.656 2.97a.195.195 0 0 1-.294-.214l1.4-5.318a.195.195 0 0 0-.065-.2l-4.276-3.483a.195.195 0 0 1 .113-.347l5.52-.319a.195.195 0 0 0 .17-.123l2.011-5.124Z" stroke="#1EB6E8" stroke-width="2.63"/></svg>