<svg width="50" height="50" viewBox="0 0 50 50" fill="none" xmlns="http://www.w3.org/2000/svg"><g clip-path="url(#a)" stroke="#1EB6E8" stroke-width="2.63" stroke-miterlimit="10" stroke-linecap="round" stroke-linejoin="round"><path d="M25 48H3.232C2.552 48 2 47.449 2 46.768V26.232C2 25.552 2.552 25 3.232 25H25v23Zm-14-4.928H7.101M46.768 48H25V25h21.768c.68 0 1.232.552 1.232 1.232v20.536c0 .68-.551 1.232-1.232 1.232ZM39 43.072h3.898M36.5 19.765V25h-23V3.228C13.5 2.55 14.05 2 14.727 2h20.541c.68 0 1.232.552 1.232 1.232v16.533Zm-14 .307h-3.898"/><path d="M17 25v6.25c0 .414-.287.75-.64.75h-5.72c-.353 0-.64-.336-.64-.75V25m30 0v6.25c0 .414-.287.75-.64.75h-5.72c-.353 0-.64-.336-.64-.75V25M29 2v6.25c0 .414-.328.75-.732.75h-6.536A.741.741 0 0 1 21 8.25V2"/></g><defs><clipPath id="a"><path fill="#fff" d="M0 0h50v50H0z"/></clipPath></defs></svg>