<svg width="50" height="50" viewBox="0 0 50 50" fill="none" xmlns="http://www.w3.org/2000/svg"><g clip-path="url(#a)" stroke="#1EB6E8" stroke-width="2.632"><path d="m29.77 6.634-.8-3.296c-.258-1.06-1.143-1.882-2.252-1.962l3.052 5.258Zm0 0c.16.656.67 1.18 1.333 1.425M29.77 6.634l1.333 1.425m0 0 .011.004m-.01-.004.01.004m0 0c.522.188 1.036.402 1.54.64h.002m-1.542-.64 1.542.64m0 0c.66.31 1.393.281 1.959-.063l2.898-1.764m-4.857 1.827 4.858-1.827m0 0c.928-.567 2.132-.522 2.976.205a23.982 23.982 0 0 1 2.429 2.431l.002.002m-5.407-2.638 5.406 2.638m0 0c.728.84.774 2.044.205 2.977m-.205-2.977.205 2.977m0 0-1.764 2.895m1.764-2.895-1.764 2.896m0 0c-.348.572-.365 1.303-.066 1.951m.066-1.951-.066 1.951m0 0 .004.009m-.004-.009.004.009m0 0c.237.503.45 1.017.642 1.54.247.69.784 1.18 1.41 1.34l.009.002m-2.06-2.882 2.06 2.882m0 0 .008.002m-.008-.002.008.002m0 0 3.295.8c1.062.259 1.881 1.144 1.96 2.251v.001m-5.255-3.052 5.255 3.052m0 0c.082 1.144.082 2.29 0 3.435v.001m0-3.436v3.436m0 0c-.079 1.108-.899 1.993-1.96 2.25l-3.295.8-.001.001m5.256-3.05-5.256 3.05m0 0c-.655.16-1.18.67-1.425 1.333m1.425-1.333-1.425 1.333m0 0-.004.012m.004-.012-.004.012m0 0a17.204 17.204 0 0 1-.638 1.537l-.001.004m.639-1.54-.64 1.54m0 0c-.309.659-.281 1.393.063 1.958l1.764 2.898v.002M41.3 32.656l1.827 4.858m0 0c.566.927.522 2.132-.206 2.976a23.996 23.996 0 0 1-2.431 2.429l-.002.001m2.639-5.407-2.639 5.407m0 0c-.84.728-2.043.774-2.976.205m2.976-.205-2.976.205m0 0-2.896-1.764m2.896 1.764-2.896-1.764m0 0c-.571-.347-1.304-.366-1.953-.064l-.005.002m1.958.062-1.958-.062m0 0c-.504.237-1.019.451-1.542.641-.69.247-1.18.785-1.34 1.412l-.003.008m2.885-2.061-2.885 2.06m0 0-.002.009m.002-.008-.002.008m0 0-.8 3.295c-.258 1.062-1.143 1.881-2.25 1.96h-.001m3.051-5.255-3.051 5.255m0 0a24.04 24.04 0 0 1-3.435 0h-.001m3.436 0h-3.436m0 0c-1.108-.079-1.993-.898-2.25-1.96h-.001l-.8-3.295v-.001m3.05 5.256-3.05-5.256m0 0c-.16-.656-.67-1.18-1.333-1.425m1.333 1.425L18.9 41.942m0 0-.012-.004m.012.004-.012-.004m0 0c-.523-.188-1.035-.4-1.537-.638l-.004-.002m1.54.64-1.54-.64m0 0c-.66-.31-1.393-.281-1.959.063l-2.897 1.764h-.002m4.858-1.827-4.858 1.828m0 0c-.928.566-2.132.522-2.976-.207a23.983 23.983 0 0 1-2.429-2.43l-.001-.002m5.406 2.639-5.406-2.64m0 0c-.728-.838-.773-2.042-.205-2.976m.205 2.977-.205-2.977m0 0 1.764-2.895M6.877 37.51l1.764-2.896m0 0c.347-.57.366-1.303.065-1.952l-.003-.005m-.062 1.957.062-1.957m0 0a18.24 18.24 0 0 1-.641-1.543c-.247-.69-.785-1.18-1.411-1.34l-.009-.002m2.061 2.885-2.06-2.885m0 0-.009-.002-3.295-.8m3.303.802L3.34 28.97m0 0c-1.06-.258-1.882-1.143-1.962-2.252L3.34 28.97Zm3.296-8.739-3.296.8c-1.06.258-1.882 1.143-1.962 2.252l5.258-3.052Zm0 0c.656-.16 1.18-.67 1.425-1.333m-1.425 1.333 1.425-1.333m0 0 .005-.012m-.005.012.005-.012m0 0c.187-.523.4-1.036.637-1.537l.002-.003m-.64 1.54.64-1.54m0 0c.31-.66.281-1.393-.063-1.96L6.877 12.49v-.001m1.827 4.858-1.827-4.858m0 0c-.567-.928-.522-2.133.205-2.977a23.982 23.982 0 0 1 2.431-2.429l.002-.001m-2.638 5.407L9.515 7.08m0 0c.84-.728 2.043-.773 2.976-.205m-2.976.205 2.977-.205m0 0 2.895 1.764m-2.895-1.764 2.895 1.764m0 0c.573.348 1.304.365 1.952.066m-1.952-.066 1.952.066m0 0 .009-.004m-.01.004.01-.004m0 0a18.5 18.5 0 0 1 1.54-.641c.69-.248 1.18-.785 1.34-1.411l.002-.009m-2.882 2.061 2.882-2.06m0 0 .002-.009m-.002.008.002-.008m0 0 .8-3.295c.258-1.06 1.142-1.881 2.25-1.962a24.484 24.484 0 0 1 3.436 0l-6.486 5.257ZM1.377 26.717a24.043 24.043 0 0 1 0-3.433v3.433Z"/><circle cx="25" cy="25" r="12.063"/><path d="m19.336 24.627 4.443 4.475 6.983-7.032" stroke-linecap="round" stroke-linejoin="round"/></g><defs><clipPath id="a"><path fill="#fff" d="M0 0h50v50H0z"/></clipPath></defs></svg>