<svg width="50" height="50" viewBox="0 0 50 50" fill="none" xmlns="http://www.w3.org/2000/svg">
<circle cx="25.0988" cy="16.3227" r="14.3461" stroke="#1EB6E8" stroke-width="2.63"/>
<path d="M15.0928 26.3849L10.163 45.0713C10.0415 45.5317 10.5135 45.9241 10.944 45.7205L16.1073 43.279C16.3557 43.1615 16.6526 43.2416 16.8083 43.4681L19.9182 47.992C20.1897 48.387 20.7999 48.2805 20.9215 47.8168L25.298 31.1373" stroke="#1EB6E8" stroke-width="2.63"/>
<path d="M35.0389 26.3849L39.9364 45.0694C40.0572 45.5302 39.5841 45.9219 39.1539 45.7172L34.0357 43.2812C33.7865 43.1626 33.488 43.2432 33.3324 43.4711L30.2503 47.9837C29.9792 48.3806 29.367 48.2742 29.2457 47.8091L24.8996 31.1373" stroke="#1EB6E8" stroke-width="2.63"/>
<path d="M25.0662 8.11833C25.1311 7.95308 25.365 7.95308 25.4299 8.11833L27.4412 13.2418C27.469 13.3128 27.5356 13.3611 27.6117 13.3654L33.1316 13.6841C33.3095 13.6944 33.3818 13.918 33.2437 14.0306L28.9681 17.5132C28.9087 17.5616 28.8831 17.6403 28.9026 17.7144L30.3033 23.032C30.3485 23.2039 30.1593 23.342 30.0094 23.2464L25.3531 20.2767C25.289 20.2358 25.2071 20.2358 25.143 20.2767L20.4867 23.2464C20.3368 23.342 20.1475 23.2039 20.1928 23.032L21.5935 17.7144C21.613 17.6403 21.5874 17.5616 21.528 17.5132L17.2524 14.0306C17.1142 13.918 17.1866 13.6944 17.3645 13.6841L22.8844 13.3654C22.9605 13.3611 23.0271 13.3128 23.0549 13.2418L25.0662 8.11833Z" stroke="#1EB6E8" stroke-width="2.63"/>
</svg>
