<svg width="50" height="50" viewBox="0 0 50 50" fill="none" xmlns="http://www.w3.org/2000/svg">
  <g clip-path="url(#clip0_649_711)">
    <path d="M29.7705 6.63427L29.7702 6.63327L28.9703 3.33813C28.7124 2.27729 27.8271 1.45621 26.7184 1.37606L29.7705 6.63427ZM29.7705 6.63427C29.9301 7.28975 30.4406 7.81361 31.1032 8.05903L31.1032 8.05908M29.7705 6.63427L31.1032 8.05908M31.1032 8.05908L31.1142 8.06303M31.1032 8.05908L31.1142 8.06303M31.1142 8.06303C31.6358 8.251 32.15 8.46467 32.6545 8.70208L32.6558 8.7027M31.1142 8.06303L32.6558 8.7027M32.6558 8.7027C33.3154 9.01219 34.0489 8.98446 34.6148 8.64005C34.6148 8.64004 34.6148 8.64003 34.6148 8.64002L37.5125 6.87638L37.5139 6.87555M32.6558 8.7027L37.5139 6.87555M37.5139 6.87555C38.4417 6.30929 39.6463 6.35363 40.49 7.0814C41.3573 7.83447 42.1711 8.64642 42.9189 9.51242L42.9205 9.51428M37.5139 6.87555L42.9205 9.51428M42.9205 9.51428C43.6479 10.3536 43.6937 11.5576 43.1252 12.4907L43.1251 12.4908M42.9205 9.51428L43.1251 12.4908M43.1251 12.4908L41.3615 15.3864L41.3613 15.3867M43.1251 12.4908L41.3613 15.3867M41.3613 15.3867C41.013 15.9589 40.9961 16.6904 41.2951 17.3381L41.295 17.3381M41.3613 15.3867L41.295 17.3381M41.295 17.3381L41.2992 17.347M41.295 17.3381L41.2992 17.347M41.2992 17.347C41.536 17.8502 41.7499 18.3645 41.9407 18.8878C42.1878 19.5773 42.7252 20.0666 43.3516 20.2273L43.3598 20.2294M41.2992 17.347L43.3598 20.2294M43.3598 20.2294L43.368 20.2314M43.3598 20.2294L43.368 20.2314M43.368 20.2314L46.6631 21.0313C46.6632 21.0313 46.6633 21.0313 46.6634 21.0314C47.7245 21.2895 48.5444 22.1747 48.6227 23.2821L48.6228 23.2831M43.368 20.2314L48.6228 23.2831M48.6228 23.2831C48.7047 24.4274 48.7047 25.5737 48.6228 26.7181L48.6227 26.7191M48.6228 23.2831L48.6227 26.7191M48.6227 26.7191C48.5443 27.8266 47.7243 28.7119 46.6631 28.9699L43.368 29.7698L43.367 29.77M48.6227 26.7191L43.367 29.77M43.367 29.77C42.7115 29.9297 42.1877 30.4402 41.9423 31.1028L41.9422 31.1028M43.367 29.77L41.9422 31.1028M41.9422 31.1028L41.9377 31.1154M41.9422 31.1028L41.9377 31.1154M41.9377 31.1154C41.75 31.6384 41.5368 32.1514 41.3001 32.6522L41.2986 32.6555M41.9377 31.1154L41.2986 32.6555M41.2986 32.6555C40.9891 33.315 41.0169 34.0486 41.3613 34.6144L43.1249 37.5122L43.1257 37.5135M41.2986 32.6555L43.1257 37.5135M43.1257 37.5135C43.692 38.4414 43.6476 39.646 42.9199 40.4898C42.1668 41.3571 41.3549 42.1709 40.4889 42.9188L40.487 42.9204M43.1257 37.5135L40.487 42.9204M40.487 42.9204C39.6478 43.6478 38.4438 43.6936 37.5108 43.1251L37.5106 43.125M40.487 42.9204L37.5106 43.125M37.5106 43.125L34.6152 41.3613L34.6148 41.3611M37.5106 43.125L34.6148 41.3611M34.6148 41.3611C34.044 41.0136 33.3112 40.9946 32.6621 41.2965L32.6568 41.299M34.6148 41.3611L32.6568 41.299M32.6568 41.299C32.1528 41.5362 31.6383 41.7501 31.1147 41.9402C30.4246 42.1872 29.935 42.7248 29.7743 43.3515L29.7722 43.3596M32.6568 41.299L29.7722 43.3596M29.7722 43.3596L29.7702 43.3679M29.7722 43.3596L29.7702 43.3679M29.7702 43.3679L28.9703 46.663C28.9703 46.6631 28.9702 46.6633 28.9702 46.6634C28.7121 47.7245 27.8269 48.5444 26.7196 48.6227L26.7186 48.6228M29.7702 43.3679L26.7186 48.6228M26.7186 48.6228C25.5743 48.7047 24.428 48.7047 23.2837 48.6228L23.2827 48.6227M26.7186 48.6228L23.2827 48.6227M23.2827 48.6227C22.1754 48.5444 21.2902 47.7245 21.0321 46.6634C21.032 46.6633 21.032 46.6631 21.032 46.663L20.2321 43.3679L20.2318 43.3669M23.2827 48.6227L20.2318 43.3669M20.2318 43.3669C20.0722 42.7114 19.5617 42.1875 18.899 41.9421L18.8991 41.942M20.2318 43.3669L18.8991 41.942M18.8991 41.942L18.8868 41.9376M18.8991 41.942L18.8868 41.9376M18.8868 41.9376C18.3645 41.7501 17.8516 41.5373 17.35 41.3001L17.3465 41.2984M18.8868 41.9376L17.3465 41.2984M17.3465 41.2984C16.6869 40.9889 15.9533 41.0167 15.3875 41.3611C15.3875 41.3611 15.3875 41.3611 15.3874 41.3611L12.4898 43.1248L12.4884 43.1256M17.3465 41.2984L12.4884 43.1256M12.4884 43.1256C11.5604 43.6919 10.3556 43.6475 9.51187 42.9194C8.64473 42.1664 7.83108 41.3546 7.08339 40.4887L7.08178 40.4869M12.4884 43.1256L7.08178 40.4869M7.08178 40.4869C6.35432 39.6476 6.30859 38.4435 6.87707 37.5104L6.87716 37.5103M7.08178 40.4869L6.87716 37.5103M6.87716 37.5103L8.64079 34.6148L8.641 34.6144M6.87716 37.5103L8.641 34.6144M8.641 34.6144C8.98848 34.0436 9.00746 33.3109 8.70557 32.6618L8.70308 32.6565M8.641 34.6144L8.70308 32.6565M8.70308 32.6565C8.46591 32.1524 8.25195 31.6378 8.06188 31.1141C7.81486 30.4242 7.27736 29.9346 6.65068 29.7739L6.64249 29.7718M8.70308 32.6565L6.64249 29.7718M6.64249 29.7718L6.63427 29.7698L3.33922 28.9699M6.64249 29.7718L3.33922 28.9699M3.33922 28.9699C2.27847 28.712 1.4574 27.8267 1.3772 26.718L3.33922 28.9699ZM6.63528 20.2311L6.63428 20.2314L3.33921 21.0313C3.33908 21.0313 3.33895 21.0313 3.33882 21.0314C2.27827 21.2894 1.45739 22.1745 1.3772 23.2831L6.63528 20.2311ZM6.63528 20.2311C7.29077 20.0714 7.81461 19.5609 8.06002 18.8983L8.06008 18.8983M6.63528 20.2311L8.06008 18.8983M8.06008 18.8983L8.06459 18.8858M8.06008 18.8983L8.06459 18.8858M8.06459 18.8858C8.25228 18.3628 8.46547 17.8498 8.70215 17.3489L8.70368 17.3457M8.06459 18.8858L8.70368 17.3457M8.70368 17.3457C9.01315 16.6861 8.98542 15.9526 8.64103 15.3867C8.64102 15.3867 8.64101 15.3867 8.641 15.3867L6.8774 12.489L6.87657 12.4876M8.70368 17.3457L6.87657 12.4876M6.87657 12.4876C6.31033 11.5597 6.35464 10.3551 7.08235 9.51135C7.83542 8.64402 8.64737 7.8302 9.51338 7.08237L9.51524 7.08076M6.87657 12.4876L9.51524 7.08076M9.51524 7.08076C10.3545 6.3533 11.5585 6.30757 12.4915 6.87605L12.4916 6.87614M9.51524 7.08076L12.4916 6.87614M12.4916 6.87614L15.3871 8.63981L15.3874 8.64002M12.4916 6.87614L15.3874 8.64002M15.3874 8.64002C15.9596 8.98831 16.6912 9.00517 17.3389 8.70621L17.3389 8.70624M15.3874 8.64002L17.3389 8.70624M17.3389 8.70624L17.3478 8.70208M17.3389 8.70624L17.3478 8.70208M17.3478 8.70208C17.851 8.46526 18.3653 8.25139 18.8887 8.06056C19.5781 7.81339 20.0674 7.27607 20.228 6.64967L20.2301 6.64148M17.3478 8.70208L20.2301 6.64148M20.2301 6.64148L20.2321 6.63327M20.2301 6.64148L20.2321 6.63327M20.2321 6.63327L21.032 3.33814C21.032 3.338 21.032 3.33787 21.0321 3.33774C21.2899 2.27761 22.1744 1.45701 23.2822 1.37618C23.852 1.33724 24.4256 1.31579 25.0011 1.31579C25.5759 1.31579 26.1488 1.33523 26.7179 1.37602L20.2321 6.63327ZM1.37716 26.7174C1.29533 25.5743 1.29533 24.4268 1.37716 23.2838V26.7174Z" stroke="#1EB6E8" stroke-width="2.63158" />
    <circle cx="25" cy="25" r="12.0631" stroke="#1EB6E8" stroke-width="2.63158" />
    <path d="M19.3359 24.6271L23.7793 29.1016L30.7617 22.0703" stroke="#1EB6E8" stroke-width="2.63158" stroke-linecap="round" stroke-linejoin="round" />
  </g>
  <defs>
    <clipPath id="clip0_649_711">
      <rect width="50" height="50" fill="white" />
    </clipPath>
  </defs>
</svg>
