<svg width="35" height="35" viewBox="0 0 35 35" fill="none" xmlns="http://www.w3.org/2000/svg"><rect x=".65" y=".65" width="33.7" height="33.7" rx="10.35" stroke="#304790" stroke-width="1.3"/><path d="M25 21.19v2.25a1.499 1.499 0 0 1-1.635 1.5 14.844 14.844 0 0 1-6.473-2.303 14.627 14.627 0 0 1-4.5-4.5 14.843 14.843 0 0 1-2.302-6.502A1.502 1.502 0 0 1 11.582 10h2.25a1.5 1.5 0 0 1 1.5 1.29c.095.72.271 1.427.525 2.107a1.5 1.5 0 0 1-.337 1.583l-.953.952a12.001 12.001 0 0 0 4.5 4.5l.953-.952a1.5 1.5 0 0 1 1.582-.338c.68.254 1.388.43 2.108.525A1.5 1.5 0 0 1 25 21.19Z" fill="#304790"/></svg>