<svg width="80" height="80" viewBox="0 0 80 80" fill="none" xmlns="http://www.w3.org/2000/svg"><path fill="#25B5E5" d="M29 58.928v17H13v-17z"/><path d="M73.32 21.75 40 9 6.679 21.75c-.41.158-.679.552-.679.991v53.125l1.063 1.063h65.874L74 75.866V22.741c0-.439-.27-.832-.68-.991ZM65.5 62.054H42.125v-4.25H65.5v4.25Zm-23.375 2.125H65.5v4.25H42.125v-4.25Zm23.375-8.5H42.125v-4.25H65.5v4.25ZM42.125 70.554H65.5v4.25H42.125v-4.25Zm25.5-20.188-1.063-1.062h-25.5L40 50.366v24.438h-4.25V34.429h36.125v40.375h-4.25V50.366ZM8.125 23.47 40 11.13l31.875 12.34v8.833H11a1.061 1.061 0 1 0 0 2.125h22.625v40.376h-4.25v-17h-17v17h-4.25V34.429h4.25a1.061 1.061 0 1 0 0-2.125h-4.25V23.47ZM27.25 74.804H14.5V59.929h12.75v14.875Z" fill="#0E374B"/><path d="M23 49.304h6.375v-8.5H23v8.5Zm2.125-6.375h2.125v4.25h-2.125v-4.25Z" fill="#0E374B"/><path fill="#25B5E5" d="M67 37.928v7H42v-7z"/><path d="M40 37.928v7.375h27.625v-7.375H40Zm25.5 2.125v3.125H42.125v-3.125H65.5ZM12 49.304h6.375v-8.5H12v8.5Zm2.125-6.375h2.125v4.25h-2.125v-4.25Z" fill="#0E374B"/><path d="M7 24h25m3 0h3m3 0h33" stroke="#0E374B" stroke-width="2"/><path d="M74.338 8H71v3.67h3.338V8Zm-8-6H63v3.67h3.338V2Zm-2 8H61v3.67h3.338V10ZM20.337 6H17v3.67h3.337V6Zm-8.999 6H8v3.67h3.338V12ZM5.337 4H2v3.67h3.337V4Z" fill="#0E374B"/><path fill="#fff" d="M4 48h6v14H4z"/><path d="M8 51H6v8h2v-8Z" fill="#0E374B"/></svg>