<svg width="80" height="80" viewBox="0 0 80 80" fill="none" xmlns="http://www.w3.org/2000/svg"><path fill="#25B5E5" d="M14 22h10v10H14zm21 11h10v9H35zM21 56h38v5H21z"/><path d="M77.5 10H45V7.5c0-2.758-2.242-5-5-5s-5 2.242-5 5V10H2.5v7.5h3.75V50h2.5V17.5h62.5V55H8.75v-2.5h-2.5v5H20v6h8.216l-4.39 11.073a1.24 1.24 0 0 0-.076.427c0 1.379 1.121 2.5 2.5 2.5h2.5a2.502 2.502 0 0 0 2.486-2.244L35.875 63.5h.375V75c0 1.379 1.121 2.5 2.5 2.5h2.5c1.379 0 2.5-1.121 2.5-2.5V63.5h.375l4.639 11.756A2.502 2.502 0 0 0 51.25 77.5h2.5c1.379 0 2.5-1.121 2.5-2.5 0-.146-.026-.29-.076-.427L51.784 63.5H60v-6h13.75v-40h3.75V10ZM28.826 74.573a1.24 1.24 0 0 0-.076.427h-2.42l4.545-11.5h2.34l-4.389 11.073ZM41.25 75h-2.5V63.5h2.5V75Zm12.42 0h-2.42c0-.146-.026-.29-.076-.427L46.784 63.5h2.341L53.67 75Zm3.83-14h-35v-3.5h35V61Zm-20-53.5C37.5 6.121 38.621 5 40 5s2.5 1.121 2.5 2.5V10h-5V7.5ZM5 15v-2.5h70l.001 2.5H5Z" fill="#0E374B"/><path d="M56 3h3v3h-3V3ZM18 5h3v3h-3V5ZM7 2h3v3H7V2Zm56 3h3v3h-3V5ZM46 21H12v23h34V21Zm-3.09 10.222h-17v-7.666h17v7.666Zm-20.092-7.666v7.666h-7.727v-7.666h7.727Zm-7.727 10.222h18.545v7.666H15.091v-7.666Zm21.636 7.666v-7.666h6.182v7.666h-6.182ZM12 48h11v2H12v-2Zm14 0h20v2H26v-2Zm41.5-27H50v29.5h17.5V21ZM65 48H52.5V23.5H65V48Zm0-19.5V48h2.5V28.5H65Z" fill="#0E374B"/><path d="M54.75 26h3v3h-3v-3Zm5 0h3v3h-3v-3Zm-5 5h3v3h-3v-3Zm5 0h3v3h-3v-3Zm-5 5h3v3h-3v-3Zm5 0h3v3h-3v-3Zm-5 5h3v3h-3v-3Zm5 0h3v3h-3v-3Z" fill="#0E374B"/></svg>