<svg width="80" height="80" viewBox="0 0 80 80" fill="none" xmlns="http://www.w3.org/2000/svg"><g clip-path="url(#a)"><path fill="#25B5E5" d="M11 47h4v5h-4zm0 10h4v5h-4zm0 10h4v5h-4z"/><path d="M33.284 46.67c0 .518-.42.938-.937.938h-12.54a.938.938 0 0 1 0-1.875h12.54c.517 0 .937.42.937.937Zm-.937 4.172h-12.54a.938.938 0 0 0 0 1.875h12.54a.938.938 0 0 0 0-1.875Zm0 5.11h-12.54a.938.938 0 0 0 0 1.874h12.54a.938.938 0 0 0 0-1.875Zm0 5.108h-12.54a.938.938 0 0 0 0 1.875h12.54a.938.938 0 0 0 0-1.875Zm0 5.11h-12.54a.938.938 0 0 0 0 1.875h12.54a.938.938 0 0 0 0-1.875Zm0 5.109h-12.54a.937.937 0 1 0 0 1.875h12.54a.937.937 0 1 0 0-1.875ZM16.175 45.733v6.984H9.19v-6.984h6.984ZM14.3 47.608h-3.234v3.234H14.3v-3.234Zm1.875 8.343v6.984H9.19v-6.984h6.984ZM14.3 57.826h-3.234v3.234H14.3v-3.234Zm1.875 8.343v6.985H9.19V66.17h6.984ZM14.3 68.044h-3.234v3.235H14.3v-3.235Zm63.57-9.324c0 11.383-9.26 20.644-20.643 20.644H3.066a.938.938 0 0 1-.937-.938V8.75h8.189l.006-7.177V.637h56.033V1c0 13.693-.011 27.748-.023 39.196 6.829 3.371 11.537 10.407 11.537 18.523ZM12.193 8.75h33.87a.99.99 0 0 1 .16.015l.026.004c.025.005.05.012.075.019l.013.003a.94.94 0 0 1 .075.027l.012.004a.94.94 0 0 1 .068.032l.015.007a1 1 0 0 1 .061.037l.017.01.062.046.012.009c.024.02.047.04.07.063l11.16 11.162a.988.988 0 0 1 .063.069l.009.011c.016.02.032.041.046.063l.01.014.037.064.006.012a.975.975 0 0 1 .065.157l.002.01a.955.955 0 0 1 .02.079l.004.022.01.069a.95.95 0 0 1 .004.093v17.246c2.206.1 4.322.546 6.295 1.287.01-11.008.022-23.825.022-36.873H12.198l-.005 6.24Zm34.808 3.201v7.963h7.963l-7.963-7.963Zm1.635 65.537c-7.106-3.265-12.052-10.45-12.052-18.769 0-11.068 8.756-20.13 19.706-20.621V21.789H45.126V10.625H4.004v66.863h44.632Zm27.36-18.769c0-10.349-8.42-18.768-18.768-18.768-10.35 0-18.77 8.42-18.77 18.768 0 10.35 8.42 18.77 18.77 18.77 10.349 0 18.768-8.42 18.768-18.77Zm-2.368 0c0 9.044-7.357 16.4-16.4 16.4-9.044 0-16.4-7.356-16.4-16.4 0-9.043 7.356-16.4 16.4-16.4 9.043 0 16.4 7.357 16.4 16.4Zm-1.875 0c0-8.009-6.516-14.525-14.526-14.525-8.009 0-14.525 6.516-14.525 14.525 0 8.01 6.516 14.526 14.526 14.526 8.009 0 14.525-6.516 14.525-14.526Zm-6.719-.936h-6.869v-6.87a.938.938 0 0 0-1.875 0v7.807c0 .518.42.938.938.938h7.807a.938.938 0 0 0 0-1.875Z" fill="#0E374B"/><path fill-rule="evenodd" clip-rule="evenodd" d="M24.712 17.568v-3.5h4.791l.959 3.5 1.916 1 2.396-2 2.875 2.5-1.917 3 .959 2.5 3.354.5v4.5l-3.354.5-.959 2 2.396 2.5-3.354 3.5-2.875-2-1.916.5-.48 4h-4.312l-.48-4-1.916-.5-2.396 2-3.354-3.5 2.396-2-.958-3-3.833-.5v-4.5h3.833l.958-2-2.396-3.5 3.354-3 2.396 2.5 1.917-1Zm-.48 6-1.437 3.5 2.396 4.5h4.792l2.395-2.5-1.437-5.5-3.833-1-2.875 1Z" fill="#25B5E5"/><path fill-rule="evenodd" clip-rule="evenodd" d="M27.587 33.054c-3.107 0-5.633-2.637-5.633-5.878s2.526-5.878 5.633-5.878c3.106 0 5.633 2.637 5.633 5.878s-2.527 5.878-5.633 5.878Zm0-9.882c-2.116 0-3.837 1.796-3.837 4.003 0 2.208 1.721 4.003 3.837 4.003 2.115 0 3.836-1.796 3.836-4.003 0-2.206-1.72-4.003-3.836-4.003Zm2.375 18.181h-4.75l-.898-.937v-3.089a10.028 10.028 0 0 1-1.29-.558l-2.095 2.185h-1.27l-3.358-3.505v-1.326l2.093-2.184a10.875 10.875 0 0 1-.535-1.346H14.9l-.9-.938V24.7l.898-.938h2.96c.149-.46.328-.91.536-1.347L16.3 20.231v-1.325l3.36-3.506h1.27l2.093 2.184a9.916 9.916 0 0 1 1.29-.558v-3.089l.9-.938h4.749l.898.938v3.089c.441.155.872.342 1.29.558l2.094-2.184h1.27l3.359 3.504v1.326l-2.093 2.185c.207.436.386.886.534 1.346h2.96l.9.938v4.956l-.9.938h-2.96c-.148.46-.327.91-.535 1.346l2.094 2.185v1.326l-3.358 3.504h-1.272L32.15 36.77a9.986 9.986 0 0 1-1.29.559v3.088l-.897.936Zm-3.851-1.875h2.952c0-5.055-.278-2.793 2.795-4.675a.87.87 0 0 1 1.09.146l1.93 2.016 2.09-2.179c-3.413-3.56-2.105-1.724-1.192-5.369.103-.412.46-.7.87-.7h2.73v-3.082c-4.832 0-2.68.295-4.481-2.917a.968.968 0 0 1 .14-1.136l1.932-2.016-2.088-2.179c-3.41 3.558-1.652 2.198-5.145 1.242a.931.931 0 0 1-.672-.906v-2.85H26.11c0 5.055.279 2.793-2.794 4.676a.87.87 0 0 1-1.09-.146l-1.931-2.015-2.088 2.178c3.409 3.559 2.105 1.724 1.19 5.37a.906.906 0 0 1-.869.7h-2.73v3.08c4.837 0 2.678-.292 4.48 2.917a.97.97 0 0 1-.14 1.137l-1.931 2.016 2.088 2.18c3.41-3.56 1.651-2.196 5.145-1.245.395.108.671.48.671.907v2.85Z" fill="#0E374B"/><path fill="#0E374B" d="M56.538 46h1.923v1.923h-1.923zm5.77.961h1.923v1.923h-1.923zm3.846 4.808h1.923v1.923h-1.923zm1.923 5.77H70v1.923h-1.923zm-1.923 5.769h1.923v1.923h-1.923zm-3.846 3.846h1.923v1.923h-1.923zm-9.616-20.193H50.77v1.923h1.923zm-3.846 4.809h-1.923v1.922h1.923zm-1.923 5.769H45v1.923h1.923zm1.923 5.769h-1.923v1.923h1.923zm3.846 3.846H50.77v1.923h1.923zm3.846 1.923h1.923V71h-1.923zM74.338 10H71v3.67h3.338V10ZM76 35h-3v3.3h3V35Zm-2.7-4v-3H70v3h3.3ZM6 3H3v3.3h3V3Zm46.337 25H49v3.67h3.337V28Zm-3.909 6H46v2.67h2.428V34Zm29.819-18H74v4h4.247v-4Z"/></g><defs><clipPath id="a"><path fill="#fff" d="M0 0h80v80H0z"/></clipPath></defs></svg>