<svg width="80" height="80" viewBox="0 0 80 80" fill="none" xmlns="http://www.w3.org/2000/svg"><g clip-path="url(#a)"><path fill="#25B5E5" d="M53 54h7v13h-7z"/><g clip-path="url(#b)" fill="#0E374B"><path d="M25.291 55.284h-2.304v3.636h2.304v-3.636Zm48.381 14.385v4.068H66.84v2.304h9.137V69.67h-2.304Zm-9.384 4.068h-3.295v2.304h3.295v-2.304Z"/><path d="M76.113 40.128h-8.868a10.583 10.583 0 0 0-2.748-6.036c-1.154-2.965-4.038-5.073-7.406-5.073H32.338c4.483-2.76 7.479-7.712 7.479-13.351C39.817 7.028 32.788 0 24.149 0h-.01C15.504 0 8.478 7.026 8.478 15.662c0 2.43.556 4.732 1.548 6.787a15.768 15.768 0 0 0 7.606 7.465C7.509 32.76.065 42.074.065 53.094v16.67h33.317V80h46.553V43.95a3.827 3.827 0 0 0-3.822-3.822Zm-19.424-7.164c4.194 0 7.673 3.122 8.236 7.164h-2.64a5.753 5.753 0 0 0-5.627-4.591 5.753 5.753 0 0 0-5.626 4.591h-2.64c.562-4.042 4.041-7.164 8.236-7.164h.06Zm3.21 7.164h-6.48a3.445 3.445 0 0 1 3.24-2.287c1.492 0 2.765.956 3.24 2.287ZM24.138 2.304c7.366 0 13.358 5.992 13.358 13.358l-.002.161c-8.892-.23-14.177-3.217-16.235-4.67.996-1.194 1.428-2.058 1.473-2.151l-2.07-1.01c-.026.05-2.454 4.784-9.878 7.416.136-7.249 6.074-13.104 13.354-13.104ZM10.951 17.787c4.063-1.335 6.855-3.246 8.697-4.946 2.148 1.6 7.826 4.997 17.62 5.281-1.157 6.195-6.604 10.898-13.129 10.898-6.642 0-12.167-4.874-13.188-11.233ZM31.42 31.323l-7.28 8.346-6.433-7.375c2.034-.63 4.195-.97 6.433-.97h7.28Zm1.963 12.627v23.482H12.529v-13.61h-2.304v13.61H2.37V53.094c0-8.898 5.366-16.565 13.032-19.938l7.586 8.697v10.35h2.304v-10.35l9.185-10.53h18.46c-3.696 1.375-6.425 4.751-6.864 8.805h-8.868a3.826 3.826 0 0 0-3.822 3.822ZM77.63 77.696H35.686V60.385a5.992 5.992 0 0 0 3.718 1.29h12.848v6.292h8.813v-6.292h12.847a5.991 5.991 0 0 0 3.719-1.29v17.311ZM54.556 65.663v-10.28h4.205v10.28h-4.205Zm23.075-10.01a3.723 3.723 0 0 1-3.719 3.718H61.064V53.08h-8.812v6.291H39.404a3.723 3.723 0 0 1-3.718-3.719V43.95a1.52 1.52 0 0 1 1.518-1.518h38.908a1.52 1.52 0 0 1 1.519 1.518v11.702Z"/><path d="M60.78 44.086v2.304h3.082v-2.304H60.78Zm5.74 0v2.304h7.152v7.334h2.304v-9.638H66.52ZM49.002 15.674h-3.025V19h3.025v-3.326ZM58 4.745h-3.228v3.55H58v-3.55Zm16.478-1.266H71v3.825h3.478V3.479ZM70.338 20.5H67v3.67h3.338V20.5Z"/></g></g><defs><clipPath id="a"><path fill="#fff" d="M0 0h80v80H0z"/></clipPath><clipPath id="b"><path fill="#fff" d="M0 0h80v80H0z"/></clipPath></defs></svg>