<svg width="35" height="35" viewBox="0 0 35 35" fill="none" xmlns="http://www.w3.org/2000/svg">
<rect x="0.65" y="0.65" width="33.7" height="33.7" rx="10.35" stroke="#304790" stroke-width="1.3"/>
<path d="M24.9999 21.1896V23.4396C25.0008 23.6485 24.958 23.8552 24.8743 24.0466C24.7907 24.238 24.6679 24.4098 24.514 24.551C24.3601 24.6922 24.1784 24.7997 23.9805 24.8666C23.7826 24.9335 23.573 24.9584 23.3649 24.9396C21.0571 24.6888 18.8402 23.9002 16.8924 22.6371C15.0803 21.4856 13.544 19.9492 12.3924 18.1371C11.1249 16.1805 10.3361 13.9528 10.0899 11.6346C10.0712 11.4272 10.0959 11.2182 10.1623 11.0208C10.2288 10.8235 10.3356 10.6421 10.476 10.4883C10.6164 10.3345 10.7873 10.2116 10.9778 10.1275C11.1683 10.0433 11.3742 9.99978 11.5824 9.99958H13.8324C14.1964 9.996 14.5493 10.1249 14.8253 10.3622C15.1012 10.5996 15.2815 10.9292 15.3324 11.2896C15.4274 12.0096 15.6035 12.7166 15.8575 13.3971C15.9584 13.6655 15.9802 13.9573 15.9204 14.2377C15.8606 14.5182 15.7216 14.7757 15.5199 14.9796L14.5674 15.9321C15.6351 17.8097 17.1898 19.3644 19.0674 20.4321L20.0199 19.4796C20.2239 19.2779 20.4813 19.139 20.7618 19.0792C21.0423 19.0193 21.334 19.0412 21.6024 19.1421C22.2829 19.396 22.9899 19.5721 23.7099 19.6671C24.0743 19.7185 24.407 19.902 24.6448 20.1827C24.8827 20.4634 25.0091 20.8218 24.9999 21.1896Z" fill="#304790"/>
</svg>
