<svg width="80" height="80" viewBox="0 0 80 80" fill="none" xmlns="http://www.w3.org/2000/svg">
<rect x="29" y="58.9282" width="17" height="16" transform="rotate(90 29 58.9282)" fill="#25B5E5"/>
<path d="M73.3209 21.75L40 9L6.679 21.75C6.26994 21.9083 6.00006 22.3025 6.00006 22.7413V75.8661L7.06256 76.9286H72.9374L73.9999 75.8661V22.7413C73.9999 22.3025 73.73 21.9093 73.3209 21.75ZM65.4999 62.0537H42.125V57.8037H65.4999V62.0537ZM42.125 64.1787H65.4999V68.4286H42.125V64.1787ZM65.4999 55.6787H42.125V51.4287H65.4999V55.6787ZM42.125 70.5536H65.4999V74.8036H42.125V70.5536ZM67.6249 50.3662L66.5624 49.3037H41.0625L40 50.3662V74.8036H35.75V34.4287H71.8749V74.8036H67.6249V50.3662ZM8.12506 23.4701L40 11.1303L71.8749 23.4691V32.3027H11C10.4124 32.3027 9.9375 32.7776 9.9375 33.3652C9.9375 33.9527 10.4124 34.4277 11 34.4277H33.625V74.8036H29.375V58.8662C29.375 58.884 29.375 57.8037 29.375 57.8037H12.375V58.8662V74.8036H8.12506V34.4287H12.375C12.9626 34.4287 13.4375 33.9538 13.4375 33.3662C13.4375 32.7787 12.9626 32.3037 12.375 32.3037H8.12506V23.4701ZM27.25 74.8036H14.5V59.9287H27.25V74.8036Z" fill="#0E374B"/>
<path d="M23.0001 49.3037H29.3751L29.3752 48.2412V41.8662L29.3751 40.8037H23.0001L23.0002 41.8662V48.2412L23.0001 49.3037ZM25.1252 42.9287H27.2502V47.1787H25.1252V42.9287Z" fill="#0E374B"/>
<rect x="67" y="37.9282" width="7" height="25" transform="rotate(90 67 37.9282)" fill="#25B5E5"/>
<path d="M40.0001 37.9282L40.0001 45.3033L41.0626 45.3033L66.5625 45.3033L67.625 45.3033L67.625 37.9283L66.5625 37.9283L41.0626 37.9283L40.0001 37.9282ZM65.5 40.0533L65.5 43.1783L42.1251 43.1783L42.1251 40.0533L65.5 40.0533Z" fill="#0E374B"/>
<path d="M12 49.3037H18.375L18.3751 48.2412V41.8662L18.375 40.8037H12.0001L12.0001 41.8662V48.2412L12 49.3037ZM14.1251 42.9287H16.2501V47.1787H14.1251V42.9287Z" fill="#0E374B"/>
<path d="M7 24H32" stroke="#0E374B" stroke-width="2"/>
<path d="M35 24H38" stroke="#0E374B" stroke-width="2"/>
<path d="M41 24H74" stroke="#0E374B" stroke-width="2"/>
<path d="M74.3375 8H71V11.6704H74.3375V8Z" fill="#0E374B"/>
<path d="M66.3375 2H63V5.67043H66.3375V2Z" fill="#0E374B"/>
<path d="M64.3375 10H61V13.6704H64.3375V10Z" fill="#0E374B"/>
<path d="M20.3375 6H17V9.67043H20.3375V6Z" fill="#0E374B"/>
<path d="M11.3375 12H8V15.6704H11.3375V12Z" fill="#0E374B"/>
<path d="M5.33747 4H2V7.67043H5.33747V4Z" fill="#0E374B"/>
<rect x="4" y="48" width="6" height="14" fill="white"/>
<path d="M8 51H6V59H8V51Z" fill="#0E374B"/>
</svg>
