<svg width="80" height="80" viewBox="0 0 80 80" fill="none" xmlns="http://www.w3.org/2000/svg">
<g clip-path="url(#clip0_709_643)">
<rect x="53" y="54" width="7" height="13" fill="#25B5E5"/>
<g clip-path="url(#clip1_709_643)">
<path d="M25.2911 55.2837H22.9872V58.9198H25.2911V55.2837Z" fill="#0E374B"/>
<path d="M73.6722 69.6689V73.7372H66.8391V76.0411H75.9763V69.6689H73.6722Z" fill="#0E374B"/>
<path d="M64.2882 73.7373H60.9928V76.0412H64.2882V73.7373Z" fill="#0E374B"/>
<path d="M76.1127 40.1278H67.2447C66.9938 37.8125 65.9959 35.7188 64.4973 34.092C63.343 31.127 60.4595 29.0194 57.0911 29.0194H32.3383C36.8212 26.2597 39.8167 21.3072 39.8167 15.6677C39.8164 7.02859 32.7881 0 24.1489 0C24.1473 0 24.1456 0.00015625 24.1441 0.00015625C24.1425 0.00015625 24.1409 0 24.1394 0C15.5036 0 8.47781 7.02578 8.47781 15.6617C8.47781 18.0919 9.03422 20.3945 10.0264 22.4491C11.6112 25.7362 14.3111 28.3886 17.6317 29.9137C7.50859 32.7595 0.065155 42.0733 0.065155 53.0934V53.1152V69.7356V69.7636H33.3817V80H79.9348V43.9502C79.9348 41.8425 78.2202 40.1278 76.1127 40.1278ZM56.6889 32.9644C60.8834 32.9644 64.3623 36.0858 64.9248 40.128H62.2853C61.7505 37.5114 59.4306 35.5369 56.6584 35.5369C53.8864 35.5369 51.5664 37.5114 51.0316 40.128H48.3917C48.9542 36.0859 52.4333 32.9644 56.6277 32.9644H56.6889ZM59.8983 40.1278H53.4184C53.8933 38.7964 55.1661 37.8406 56.6584 37.8406C58.1506 37.8406 59.4236 38.7966 59.8983 40.1278ZM24.1394 2.30391C31.5048 2.30391 37.497 8.29609 37.497 15.6616C37.497 15.7156 37.4956 15.7695 37.495 15.8234C28.6028 15.5939 23.3178 12.6059 21.26 11.1527C22.2559 9.95859 22.6878 9.09547 22.7331 9.00203L20.6625 7.99172C20.6375 8.04234 18.2092 12.7758 10.785 15.4081C10.9208 8.15922 16.8587 2.30391 24.1394 2.30391ZM10.9514 17.7866C15.0145 16.4523 17.8064 14.5411 19.6484 12.8408C21.7956 14.4414 27.4736 17.8383 37.2689 18.1225C36.1106 24.3166 30.6642 29.0195 24.1392 29.0195C17.497 29.0194 11.9722 24.1456 10.9514 17.7866ZM31.4192 31.3233L24.1394 39.6688L17.7061 32.2937C19.7402 31.6634 21.9008 31.3233 24.1394 31.3233H31.4192ZM33.3817 43.9502V67.4317H12.5291V53.8216H10.2252V67.4317H2.36906V53.1153V53.0936C2.36906 44.1958 7.73547 36.5289 15.4011 33.1562L22.9873 41.853V52.2038H25.2912V41.853L34.4762 31.3234H52.9359C49.2402 32.6981 46.5112 36.0742 46.0717 40.128H37.2039C35.0964 40.1278 33.3817 41.8425 33.3817 43.9502ZM77.6309 77.6961H35.6856V60.3845C36.7106 61.1917 38.0017 61.6752 39.4045 61.6752H52.2519V67.9667H61.0645V61.6752H73.912C75.3148 61.6752 76.6061 61.1917 77.6309 60.3845V77.6961ZM54.5559 65.6628V55.3838H58.7608V65.6628H54.5559ZM77.6309 55.6523C77.6309 57.703 75.9627 59.3713 73.912 59.3713H61.0645V53.0798H52.2519V59.3713H39.4045C37.3539 59.3713 35.6856 57.7031 35.6856 55.6523V43.95C35.6856 43.113 36.3667 42.4317 37.2037 42.4317H76.1125C76.9497 42.4317 77.6308 43.113 77.6308 43.95V55.6523H77.6309Z" fill="#0E374B"/>
<path d="M60.7798 44.0862V45.2382V46.3902H63.8625V45.2382V44.0862H60.7798Z" fill="#0E374B"/>
<path d="M66.5202 44.0862V46.3902H73.6722V53.7237H75.9762V44.0862H66.5202Z" fill="#0E374B"/>
<path d="M49.0015 15.6743H45.9774V19H49.0015V15.6743Z" fill="#0E374B"/>
<path d="M58 4.74512H54.7722V8.29469H58V4.74512Z" fill="#0E374B"/>
<path d="M74.4785 3.47852H71V7.30377H74.4785V3.47852Z" fill="#0E374B"/>
<path d="M70.3375 20.5005H67V24.1709H70.3375V20.5005Z" fill="#0E374B"/>
</g>
</g>
<defs>
<clipPath id="clip0_709_643">
<rect width="80" height="80" fill="white"/>
</clipPath>
<clipPath id="clip1_709_643">
<rect width="80" height="80" fill="white"/>
</clipPath>
</defs>
</svg>
