<svg width="80" height="80" viewBox="0 0 80 80" fill="none" xmlns="http://www.w3.org/2000/svg">
<g clip-path="url(#clip0_709_714)">
<rect x="11" y="47" width="4" height="5" fill="#25B5E5"/>
<rect x="11" y="57" width="4" height="5" fill="#25B5E5"/>
<rect x="11" y="67" width="4" height="5" fill="#25B5E5"/>
<path d="M33.2841 46.6703C33.2841 47.188 32.8642 47.6078 32.3466 47.6078H19.8077C19.29 47.6078 18.8702 47.188 18.8702 46.6703C18.8702 46.1527 19.29 45.7328 19.8077 45.7328H32.3466C32.8642 45.7328 33.2841 46.1527 33.2841 46.6703ZM32.3466 50.842H19.8077C19.29 50.842 18.8702 51.2619 18.8702 51.7795C18.8702 52.2972 19.29 52.717 19.8077 52.717H32.3466C32.8642 52.717 33.2841 52.2972 33.2841 51.7795C33.2841 51.2619 32.8642 50.842 32.3466 50.842ZM32.3466 55.9512H19.8077C19.29 55.9512 18.8702 56.3711 18.8702 56.8887C18.8702 57.4064 19.29 57.8262 19.8077 57.8262H32.3466C32.8642 57.8262 33.2841 57.4064 33.2841 56.8887C33.2841 56.3711 32.8642 55.9512 32.3466 55.9512ZM32.3466 61.0605H19.8077C19.29 61.0605 18.8702 61.4803 18.8702 61.998C18.8702 62.5156 19.29 62.9355 19.8077 62.9355H32.3466C32.8642 62.9355 33.2841 62.5156 33.2841 61.998C33.2841 61.4803 32.8642 61.0605 32.3466 61.0605ZM32.3466 66.1697H19.8077C19.29 66.1697 18.8702 66.5895 18.8702 67.1072C18.8702 67.6248 19.29 68.0447 19.8077 68.0447H32.3466C32.8642 68.0447 33.2841 67.6248 33.2841 67.1072C33.2841 66.5895 32.8642 66.1697 32.3466 66.1697ZM32.3466 71.2789H19.8077C19.29 71.2789 18.8702 71.6986 18.8702 72.2162C18.8702 72.7339 19.29 73.1537 19.8077 73.1537H32.3466C32.8642 73.1537 33.2841 72.7341 33.2841 72.2164C33.2841 71.6987 32.8642 71.2789 32.3466 71.2789ZM16.1748 45.7327V52.7169H9.19063V45.7328L16.1748 45.7327ZM14.2998 47.6077H11.0656V50.8419H14.2998V47.6077ZM16.1748 55.9511V62.9353H9.19063V55.9511H16.1748ZM14.2998 57.8261H11.0656V61.0603H14.2998V57.8261ZM16.1748 66.1694V73.1536H9.19063V66.1697L16.1748 66.1694ZM14.2998 68.0444H11.0656V71.2786H14.2998V68.0444ZM77.8714 58.7191C77.8714 70.1022 68.6106 79.3628 57.2277 79.3628H3.0661C2.54844 79.3628 2.1286 78.943 2.1286 78.4253V9.68781V8.75031H10.318L10.3241 1.57344V0.636719H66.357V0.999899C66.357 14.6926 66.3455 28.7477 66.3342 40.1964C73.1627 43.5672 77.8714 50.6028 77.8714 58.7191ZM12.193 8.75031H46.0639C46.0953 8.75031 46.1266 8.75187 46.1577 8.755C46.18 8.75719 46.2016 8.76109 46.2234 8.76484C46.2317 8.76625 46.2403 8.76703 46.2486 8.76875C46.2744 8.77391 46.2995 8.78062 46.3244 8.78781C46.3286 8.78906 46.3331 8.78984 46.3373 8.79109C46.3628 8.79891 46.3877 8.80812 46.4122 8.81797C46.4159 8.81953 46.4198 8.82062 46.4236 8.82203C46.4469 8.83172 46.4695 8.84281 46.492 8.85437C46.4969 8.85687 46.5019 8.85891 46.5066 8.86141C46.5278 8.87281 46.5481 8.88547 46.5683 8.89828C46.5739 8.90187 46.5797 8.90484 46.5852 8.90859C46.6064 8.92281 46.6269 8.93828 46.6469 8.95422C46.6506 8.95734 46.6548 8.95984 46.6586 8.96297C46.6828 8.98281 46.7059 9.00391 46.7281 9.02609L57.8894 20.1875C57.9116 20.2097 57.9325 20.2328 57.9525 20.257C57.9555 20.2606 57.958 20.2647 57.9609 20.2683C57.977 20.2884 57.9927 20.3091 58.007 20.3306C58.0103 20.3355 58.013 20.3405 58.0161 20.3453C58.0295 20.3663 58.0425 20.3873 58.0544 20.4092C58.0566 20.4131 58.0581 20.4173 58.0603 20.4214C58.0723 20.4445 58.0836 20.468 58.0938 20.4922C58.0948 20.495 58.0958 20.4978 58.0969 20.5006C58.107 20.5261 58.1166 20.5519 58.1247 20.5783C58.1256 20.5816 58.1263 20.5848 58.1273 20.5881C58.1348 20.6141 58.1417 20.6402 58.147 20.6669C58.1486 20.6742 58.1492 20.6817 58.1505 20.6892C58.1544 20.7119 58.1584 20.7345 58.1606 20.7577C58.1638 20.7886 58.1653 20.8198 58.1653 20.8512V38.0975C60.3705 38.1966 62.4866 38.6433 64.4602 39.3839C64.4709 28.3759 64.4819 15.5586 64.4823 2.51125H12.1983L12.193 8.75031ZM47.0014 11.9511V19.9141H54.9642L47.0014 11.9511ZM48.6358 77.4883C41.5302 74.2227 36.5838 67.0383 36.5838 58.7195C36.5838 47.6508 45.3405 38.5898 56.29 38.098V21.7892H45.1264V10.6255H4.0036V77.4884L48.6358 77.4883ZM75.9963 58.7195C75.9963 48.3705 67.5766 39.9508 57.2275 39.9508C46.8784 39.9508 38.4588 48.3705 38.4588 58.7195C38.4588 69.0686 46.8784 77.4883 57.2275 77.4883C67.5766 77.4883 75.9963 69.0686 75.9963 58.7195ZM73.6278 58.7195C73.6278 67.7626 66.2706 75.1198 57.2275 75.1198C48.1844 75.1198 40.8272 67.7626 40.8272 58.7195C40.8272 49.6764 48.1844 42.3194 57.2275 42.3194C66.2706 42.3194 73.6278 49.6764 73.6278 58.7195ZM71.7528 58.7195C71.7528 50.7103 65.2369 44.1944 57.2275 44.1944C49.2181 44.1944 42.7022 50.7103 42.7022 58.7195C42.7022 66.7287 49.2181 73.2448 57.2275 73.2448C65.2369 73.2448 71.7528 66.7289 71.7528 58.7195ZM65.0345 57.7827H58.165V50.913C58.165 50.3953 57.7452 49.9755 57.2275 49.9755C56.7099 49.9755 56.29 50.3953 56.29 50.913V58.7172V58.7202C56.29 59.2378 56.7099 59.6577 57.2275 59.6577H65.0347C65.5523 59.6577 65.9722 59.2378 65.9722 58.7202C65.9722 58.2025 65.5522 57.7827 65.0345 57.7827Z" fill="#0E374B"/>
<path fill-rule="evenodd" clip-rule="evenodd" d="M24.7118 17.5684V14.0684H29.5034L30.4617 17.5684L32.3783 18.5684L34.7741 16.5684L37.649 19.0684L35.7324 22.0684L36.6907 24.5684L40.0448 25.0684V29.5684L36.6907 30.0684L35.7324 32.0684L38.1282 34.5684L34.7741 38.0684L31.8992 36.0684L29.9825 36.5684L29.5034 40.5684H25.191L24.7118 36.5684L22.7952 36.0684L20.3995 38.0684L17.0454 34.5684L19.4411 32.5684L18.4828 29.5684L14.6496 29.0684V24.5684H18.4828L19.4411 22.5684L17.0454 19.0684L20.3995 16.0684L22.7952 18.5684L24.7118 17.5684ZM24.2327 23.5684L22.7952 27.0684L25.191 31.5684H29.9825L32.3783 29.0684L30.9408 23.5684L27.1076 22.5684L24.2327 23.5684Z" fill="#25B5E5"/>
<path fill-rule="evenodd" clip-rule="evenodd" d="M27.5868 33.0541C24.4805 33.0541 21.9537 30.4174 21.9537 27.176C21.9537 23.935 24.4805 21.2978 27.5868 21.2978C30.6926 21.2978 33.2203 23.935 33.2203 27.176C33.2203 30.4174 30.6926 33.0541 27.5868 33.0541ZM27.5868 23.1724C25.4715 23.1724 23.7501 24.9682 23.7501 27.1755C23.7501 29.3829 25.471 31.1782 27.5868 31.1782C29.7021 31.1782 31.423 29.3824 31.423 27.1755C31.423 24.9691 29.7021 23.1724 27.5868 23.1724ZM29.9618 41.3534H25.2123L24.3138 40.4159V37.3273C23.8723 37.1721 23.441 36.9856 23.0233 36.769L20.9291 38.9539H19.6591L16.3009 35.4495V34.1234L18.3942 31.939C18.1862 31.5026 18.0074 31.053 17.8592 30.5927H14.8984L14 29.6552V24.6996L14.8984 23.7621H17.8583C18.0069 23.3013 18.1857 22.8513 18.3937 22.4153L16.3004 20.231V18.9058L19.6587 15.4009H20.9291L23.0224 17.5853C23.4397 17.3688 23.8709 17.1822 24.3129 17.0275V13.938L25.2114 13.0005L29.9609 13L30.8593 13.9375V17.027C31.3004 17.1817 31.7312 17.3688 32.1494 17.5853L34.2427 15.4009H35.5135L38.8718 18.9053V20.231L36.7785 22.4163C36.9865 22.8518 37.1648 23.3022 37.3131 23.7625H40.2738L41.1722 24.7V29.6562L40.2738 30.5937L37.3135 30.5941C37.1648 31.0535 36.986 31.5035 36.7776 31.9404L38.8718 34.1248V35.4509L35.5135 38.9553H34.2423L32.1494 36.7699C31.7316 36.987 31.3004 37.1735 30.8593 37.3287V40.4173L29.9618 41.3534ZM26.1107 39.4779H29.0629C29.0629 34.4234 28.7848 36.6846 31.8583 34.8031C32.2096 34.5874 32.6579 34.647 32.9476 34.9488L34.8788 36.9654L36.9672 34.7862C33.555 31.2265 34.8626 33.0616 35.7759 29.4171C35.8792 29.0046 36.2363 28.7168 36.6455 28.7168H39.3758V25.6352C34.5437 25.6352 36.6954 25.9305 34.895 22.7177C34.6892 22.3497 34.7463 21.8833 35.0351 21.5819L36.9672 19.5658L34.8788 17.387C31.4689 20.9453 33.2271 19.5846 29.7336 18.6292C29.3383 18.5214 29.0624 18.1488 29.0624 17.7227V14.8736H26.1102C26.1102 19.9282 26.3887 17.6664 23.3157 19.5494C22.964 19.7655 22.5148 19.705 22.2264 19.4032L20.2948 17.3875L18.2068 19.5663C21.6159 23.1246 20.3118 21.2903 19.3973 24.9354C19.2939 25.3479 18.9368 25.6357 18.528 25.6357H15.7977V28.7168C20.6353 28.7168 18.4764 28.4238 20.2782 31.6334C20.4848 32.0013 20.4268 32.4677 20.1384 32.7701L18.2068 34.7862L20.2948 36.9654C23.7052 33.4052 21.9461 34.7702 25.44 35.7213C25.8353 35.8292 26.1111 36.2018 26.1111 36.6284L26.1107 39.4779Z" fill="#0E374B"/>
<rect x="56.5385" y="46" width="1.92308" height="1.92308" fill="#0E374B"/>
<rect x="62.3077" y="46.9614" width="1.92308" height="1.92308" fill="#0E374B"/>
<rect x="66.1539" y="51.7693" width="1.92308" height="1.92308" fill="#0E374B"/>
<rect x="68.0769" y="57.5386" width="1.92308" height="1.92308" fill="#0E374B"/>
<rect x="66.1539" y="63.3076" width="1.92308" height="1.92308" fill="#0E374B"/>
<rect x="62.3077" y="67.1538" width="1.92308" height="1.92308" fill="#0E374B"/>
<rect width="1.92308" height="1.92308" transform="matrix(-1 0 0 1 52.6923 46.9614)" fill="#0E374B"/>
<rect width="1.92308" height="1.92308" transform="matrix(-1 0 0 1 48.8461 51.7693)" fill="#0E374B"/>
<rect width="1.92308" height="1.92308" transform="matrix(-1 0 0 1 46.9231 57.5386)" fill="#0E374B"/>
<rect width="1.92308" height="1.92308" transform="matrix(-1 0 0 1 48.8461 63.3076)" fill="#0E374B"/>
<rect width="1.92308" height="1.92308" transform="matrix(-1 0 0 1 52.6923 67.1538)" fill="#0E374B"/>
<rect x="56.5385" y="69.0769" width="1.92308" height="1.92308" fill="#0E374B"/>
<path d="M74.3375 10H71V13.6704H74.3375V10Z" fill="#0E374B"/>
<path d="M76 35H73V38.2993H76V35Z" fill="#0E374B"/>
<path d="M73.2993 31L73.2993 28L70 28L70 31L73.2993 31Z" fill="#0E374B"/>
<path d="M6 3H3V6.29929H6V3Z" fill="#0E374B"/>
<path d="M52.3375 28H49V31.6704H52.3375V28Z" fill="#0E374B"/>
<path d="M48.4282 34H46V36.6704H48.4282V34Z" fill="#0E374B"/>
<path d="M78.2468 16H74V20H78.2468V16Z" fill="#0E374B"/>
</g>
<defs>
<clipPath id="clip0_709_714">
<rect width="80" height="80" fill="white"/>
</clipPath>
</defs>
</svg>
