<svg width="80" height="80" viewBox="0 0 80 80" fill="none" xmlns="http://www.w3.org/2000/svg">
<rect x="14" y="22" width="10" height="10" fill="#25B5E5"/>
<rect x="35" y="33" width="10" height="9" fill="#25B5E5"/>
<rect x="21" y="56" width="38" height="5" fill="#25B5E5"/>
<path d="M77.5 10H45V7.5C45 4.7425 42.7575 2.5 40 2.5C37.2425 2.5 35 4.7425 35 7.5V10H2.5L2.5 17.5H6.25V50H8.75V17.5H71.25V55H8.75V52.5H6.25V57.5H20L20 63.5H28.2163L23.8263 74.5725C23.7763 74.71 23.75 74.8538 23.75 75C23.75 76.3788 24.8713 77.5 26.25 77.5H28.75C30.0413 77.5 31.1088 76.515 31.2363 75.2563L35.875 63.5H36.25V75C36.25 76.3788 37.3713 77.5 38.75 77.5H41.25C42.6287 77.5 43.75 76.3788 43.75 75V63.5H44.125L48.7638 75.2563C48.8913 76.515 49.9588 77.5 51.25 77.5H53.75C55.1287 77.5 56.25 76.3788 56.25 75C56.25 74.8538 56.2237 74.71 56.1737 74.5725L51.7837 63.5H60V57.5H73.75V17.5H77.5V10ZM28.8263 74.5725C28.7763 74.71 28.75 74.8538 28.75 75H26.33L30.875 63.5H33.215L28.8263 74.5725ZM41.25 75H38.75V63.5H41.25V75ZM53.67 75H51.25C51.25 74.8538 51.2237 74.71 51.1737 74.5725L46.7837 63.5H49.125L53.67 75ZM57.5 61H22.5V57.5H57.5V61ZM37.5 7.5C37.5 6.12125 38.6213 5 40 5C41.3787 5 42.5 6.12125 42.5 7.5V10H37.5V7.5ZM5 15V12.5H75L75.0012 15H5Z" fill="#0E374B"/>
<path d="M56 3H59V6H56V3Z" fill="#0E374B"/>
<path d="M18 5H21V8H18V5Z" fill="#0E374B"/>
<path d="M7 2H10V5H7V2Z" fill="#0E374B"/>
<path d="M63 5H66V8H63V5Z" fill="#0E374B"/>
<path d="M46 21.0001L12.0001 21L12 44H46V21.0001ZM42.9091 31.2222H25.9091V23.5556H42.9091V31.2222ZM22.8182 23.5556V31.2222H15.091V23.5556H22.8182ZM15.091 33.7778H33.6364V41.4444H15.091V33.7778ZM36.7273 41.4444V33.7778H42.9091V41.4444H36.7273Z" fill="#0E374B"/>
<path d="M12 48H23V50H12V48Z" fill="#0E374B"/>
<path d="M26 48H46V50H26V48Z" fill="#0E374B"/>
<path d="M67.5 21H50L50 50.5H66.25H67.5V26V21ZM65 48H52.5V23.5H65V48ZM65 28.5V48H67.5V28.5H65Z" fill="#0E374B"/>
<path d="M54.75 26H57.75V29H54.75V26Z" fill="#0E374B"/>
<path d="M59.75 26H62.75V29H59.75V26Z" fill="#0E374B"/>
<path d="M54.75 31H57.75V34H54.75V31Z" fill="#0E374B"/>
<path d="M59.75 31H62.75V34H59.75V31Z" fill="#0E374B"/>
<path d="M54.75 36H57.75V39H54.75V36Z" fill="#0E374B"/>
<path d="M59.75 36H62.75V39H59.75V36Z" fill="#0E374B"/>
<path d="M54.75 41H57.75V44H54.75V41Z" fill="#0E374B"/>
<path d="M59.75 41H62.75V44H59.75V41Z" fill="#0E374B"/>
</svg>
